<svg xmlns="http://www.w3.org/2000/svg" width="32" height="32" viewBox="0 0 32 32"><path fill="#fefefe" d="M23.382 8.053c.317.006.666.038.97.076 1.008.128 2.041.501 2.898 1.047.185.118.444.226.584.405.028.036.008.02.053.035.066.11.408.329.518.44.503.505.982 1.05 1.351 1.665a7.9 7.9 0 0 1 .97 5.474c-.046.247-.108.49-.17.733-.022.142-.14.257-.146.394-.005.09-.065.155-.096.239-.234.61-.534 1.24-.949 1.747-.23.282-.497.658-.762.904-.363.338-.725.669-1.147.928-.411.252-.786.51-1.253.663-.086.03-.177.126-.28.137-.228.066-.47.154-.7.211a8 8 0 0 1-1.832.232v-5.799c0-.582.011-.88-.066-1.453-.047.216-.057.41-.075.63-.013.153-.05.316-.067.47-.005.047-.01.08-.04.117-.06.11-.053.204-.092.357-.075.299-.19.587-.262.886l-.05.035c-.143.437-.38.87-.63 1.249a9 9 0 0 1-1.034 1.322c-.075.076-.179.14-.256.216-.177.182-.37.326-.55.503-.133.099-.298.172-.437.26-.122.08-.231.177-.357.25-.137.079-.282.146-.426.212-.085.039-.174.066-.257.104a6.8 6.8 0 0 1-2.953.641v-5.907c0-.322.028-1.088-.09-1.352-.048.244-.022.451-.056.672-.044.285-.123.653-.191.931-.151.621-.41 1.207-.693 1.777-.05.097-.162.213-.211.298a5 5 0 0 1-.202.336c-.342.515-.755.96-1.218 1.37-.164.119-.34.354-.517.435-.218.1-.396.28-.6.4a7.7 7.7 0 0 1-1.812.772 7.4 7.4 0 0 1-5.034-.387c-.373-.168-.696-.324-1.025-.573-.133-.1-.33-.157-.443-.284-.235-.221-.495-.434-.738-.646-.073-.064-.114-.139-.176-.205a6.5 6.5 0 0 1-.743-.938l-.05-.02c-.182-.333-.443-.74-.588-1.081a8 8 0 0 1-.313-.838c-.028-.103-.098-.217-.124-.318a7.6 7.6 0 0 1-.232-1.39c-.005-.08-.02-.182-.032-.262-.065-.442.001-.845.045-1.283.037-.365.076-.723.18-1.08.018-.07.056-.265.083-.313.113-.198.141-.41.224-.614q.23-.575.538-1.113c.286-.503.735-1.043 1.135-1.461.029-.017.113-.15.131-.158.129-.063.191-.158.29-.241.312-.262.595-.51.954-.704.277-.15.53-.35.833-.46.235-.095.44-.18.684-.255.096-.03.219-.103.337-.137a7.48 7.48 0 0 1 4.857.264 7.57 7.57 0 0 1 4.143 4.155c.155.379.297.828.37 1.228.019.101.06.111.058.235 0 .119.06.268.079.398.021.143-.002.5.05.61l.021.004c.104-.169.075-.925.075-1.17V8.065c.473.006.973.08 1.443.14.22.03.423.15.673.16.012.011.05.047.063.052.39.148.84.284 1.208.48a7.65 7.65 0 0 1 2.756 2.494c.07.104.145.205.215.308.064.095.117.21.173.31q.125.226.223.464l.046.02c.002.146.077.257.149.38.018.032.016.037.02.077.167.432.3.959.408 1.41.062.257.048.549.111.821.07-.419.057-.786.056-1.207v-5.92"/><path fill="#dbdbdb" fill-opacity=".71" d="M15.81 8.03a7.64 7.64 0 0 1 3.64.934c.064.116.108.083.209.15.152.101.367.202.506.314.582.465 1.147.949 1.583 1.559.083.108.16.188.222.31.083.162.258.33.337.503.098.217.496.9.513 1.104l-.013.045c-.004-.04-.002-.045-.02-.078-.072-.122-.147-.233-.149-.38l-.046-.02a5 5 0 0 0-.223-.462c-.056-.1-.109-.216-.173-.31-.07-.104-.145-.205-.215-.309a7.65 7.65 0 0 0-2.756-2.493c-.367-.197-.819-.333-1.208-.481a.4.4 0 0 1-.063-.052c-.25-.01-.452-.13-.673-.16-.47-.06-.97-.134-1.443-.14v6.014c0 .245.029 1.001-.075 1.17l-.021-.005c-.052-.11-.029-.466-.05-.61-.02-.129-.08-.278-.079-.397.001-.124-.04-.134-.058-.235-.073-.4-.215-.85-.37-1.228a7.57 7.57 0 0 0-4.143-4.155 7.48 7.48 0 0 0-4.857-.264c-.118.034-.24.108-.337.137-.244.075-.449.16-.684.255-.303.11-.556.31-.833.46-.359.195-.642.442-.953.704-.1.083-.162.178-.29.24-.019.01-.103.142-.132.159-.4.418-.85.958-1.135 1.46q-.308.539-.538 1.114c-.083.203-.11.416-.224.614-.027.048-.065.243-.084.313-.103.357-.142.715-.179 1.08-.044.438-.11.841-.045 1.283.011.08.027.182.032.262.031.473.114.932.232 1.39.026.1.096.215.124.318.104.33.17.504.313.838.145.34.406.748.588 1.081l.05.02c.195.313.49.67.743.938.062.066.103.141.176.205.243.212.503.425.738.646.113.127.31.184.443.284.33.25.652.405 1.025.573a7.4 7.4 0 0 0 5.034.387 7.7 7.7 0 0 0 1.811-.772c.205-.12.383-.3.6-.4.178-.08.354-.316.518-.436.463-.409.876-.854 1.218-1.369.073-.11.137-.22.202-.336.049-.084.162-.2.21-.298.284-.57.543-1.156.694-1.777.068-.278.147-.646.191-.93.034-.222.008-.429.056-.673.118.264.09 1.03.09 1.352v5.907c1.02.01 2.029-.209 2.953-.641.083-.038.172-.065.257-.105.144-.065.289-.132.426-.211.126-.073.235-.17.357-.25.139-.088.304-.161.437-.26.18-.177.373-.321.55-.503.077-.076.181-.14.256-.216.4-.415.72-.844 1.035-1.322.25-.379.486-.812.629-1.25l.05-.034c.072-.3.187-.587.262-.886.039-.153.032-.247.091-.357.031-.037.036-.07.04-.117.017-.154.055-.317.068-.47.018-.22.028-.414.075-.63.077.572.066.871.066 1.453v5.799c.592 0 1.257-.09 1.832-.232.23-.057.472-.145.7-.21.103-.012.194-.107.28-.138.467-.153.842-.41 1.253-.663.422-.26.784-.59 1.147-.928.265-.246.531-.622.762-.904.415-.508.715-1.137.949-1.747.031-.084.091-.15.096-.239.006-.137.124-.252.146-.394.062-.243.124-.486.17-.733a7.9 7.9 0 0 0-.97-5.474c-.369-.614-.848-1.16-1.351-1.666-.11-.11-.452-.328-.518-.44.129.074.24.195.33.226.037.07.224.18.292.253.056.061.136.138.196.199 2.56 2.619 2.917 6.716.905 9.769-.09.135-.195.251-.303.372-.062.09-.114.179-.184.264a7.7 7.7 0 0 1-2.574 2.014c-.113.053-.161.099-.292.114.003 0-.152.086-.175.097q-.136.06-.28.105-.598.189-1.215.306c-.078.014-.261.006-.31.02-.169.044-.752.101-.899.044-.056-.116-.007-4.892-.024-5.37-.01-.254.026-1.102-.03-1.463-.014.093-.023.188-.038.28-.283 1.773-1.126 3.467-2.49 4.654-.197.172-.339.317-.557.475a7.4 7.4 0 0 1-3.178 1.353c-.222.038-1.053.137-1.252.082-.014-.076-.01-.347-.01-.436l.002-.863-.001-3.793v-1.029c0-.168.008-.484-.021-.635l-.017-.005c-.022.042-.127.737-.159.876a7.4 7.4 0 0 1-1.367 2.924c-.18.233-.35.46-.563.67-.303.299-.67.639-1.01.9a.3.3 0 0 1-.085.023c-.113.074-.264.192-.377.278-.026.02-.018.023-.054.047l-.026.017-.025-.003c-.08.093-1.108.574-1.26.627a8.15 8.15 0 0 1-3.287.403c-1.575-.141-3.147-.805-4.282-1.904-.082-.079-.212-.141-.294-.224C.918 19.18.1 16.03 1.1 13.236c.025-.071.084-.276.13-.324.022-.096.131-.316.175-.414.459-1.03 1.19-2.012 2.071-2.72.178-.143.358-.32.554-.442.303-.173.624-.396.934-.546a7.6 7.6 0 0 1 5.034-.567c.519.12 1.278.43 1.755.664.264.164.539.322.785.512.034.026.082.012.11.036.653.555 1.321 1.124 1.772 1.862.093.152.193.278.292.424.498.824.81 1.753.98 2.699.035.199.022.374.062.568.08-.285.056-.78.056-1.094l-.001-1.274z"/><path fill="#0c0c0c" fill-opacity=".067" d="M15.542 18.126c-.007.194-.126.38-.185.555-.282.834-.805 1.538-1.332 2.23l-.066.015c-.058.102-.146.214-.218.31-.04.05-.114.067-.157.113-.237.255-.511.48-.782.698a1 1 0 0 1-.302.172c-.059.02-.07.044-.114.084-.213.163-.491.356-.743.456a2.2 2.2 0 0 0-.538.28c-.025.017-.132.006-.182.026-.116.047-.256.157-.38.147-.145-.014-.329.111-.49.147-.246.054-.457.06-.7.084-.063.006-.183.087-.3.088-.565.005-1.138.027-1.702-.02-.083.015-.17-.07-.236-.08-.098-.016-.217.01-.316-.01a10 10 0 0 1-.999-.265c-.138-.044-.205-.117-.36-.108-.008 0-.188-.117-.215-.124-.244-.117-.488-.241-.73-.36-.091-.024-.138-.118-.214-.157-.559-.292-1.026-.747-1.492-1.165-.075-.082-.132-.176-.204-.26-.08-.092-.189-.168-.26-.267-.064-.09-.119-.185-.176-.277-.126-.037-.075-.084-.141-.2-.014-.003-.068-.013-.074-.024-.134-.234-.293-.5-.433-.729-.047-.075-.065-.226-.102-.289-.026-.047-.118-.147-.132-.194a1.7 1.7 0 0 0-.212-.51c-.015-.022-.013-.228-.032-.268-.017-.035-.049-.042-.08-.06a.12.12 0 0 1-.022-.09c.028-.118-.073-.134-.087-.214-.049-.278-.018-.447-.167-.677-.03-.046-.018-.54-.04-.653-.048.124.015.191-.005.313-.002.01-.011.045-.014.064a9 9 0 0 1-.011-.75c.011-.382-.025-.923.018-1.289l.003.09c.005-.052.05-.68.049-.68.152-.191.114-.493.186-.74.024-.08.138-.266.175-.35.04-.088-.02-.23.07-.304.08-.08.098-.214.143-.322.398-.965 1.025-1.833 1.775-2.558.552-.533 1.234-.986 1.915-1.339.203-.105.44-.179.65-.273.13-.055.177.005.268-.116l.181-.02c.02-.021.067-.074.092-.08.185-.045.387-.057.569-.086.032-.03.06-.057.104-.064.29-.047.554-.08.848-.08.087-.005.181-.03.268-.03.324-.002.648-.024.968.03.085.015.229-.008.32.003.093.012.187.035.28.049.141.024.226-.005.343.073.087.058.353.032.47.072.09.032.118.096.189.118.022.004.178.002.184.013.069.139.187.067.31.101.04.011.12.11.169.12.14.027.275.1.406.155.313.132.617.327.877.543.042.035.067.006.09.017.084.04.142.153.235.174.065.015.107.027.153.074.06.185.316.24.424.37.273.33.649.602.868.968.07.117.152.153.22.256.138.21.266.442.423.634.16.16.057.169.16.31.192.261.644 1.452.653 1.752-.04-.042-.22-.631-.26-.744-.066-.178-.506-1.27-.642-1.307-.115-.109-.219-.33-.318-.466a14 14 0 0 0-.555-.72c-.5-.521-1.034-1.013-1.66-1.379-.13-.076-.279-.2-.41-.261-.386-.181-.811-.38-1.214-.516a6.9 6.9 0 0 0-2.062-.352c-.332.009-.7-.017-1.03.017a7.8 7.8 0 0 0-2.754.835c-.26.133-.57.365-.831.515-.171.098-.355.305-.52.423-.107.093-.305.243-.392.334-.655.68-1.252 1.465-1.627 2.336-.046.106-.148.304-.149.408l.001.04c-.046.05-.105.254-.13.325C.099 16.03.918 19.18 2.973 21.282c.082.083.212.145.294.224 1.135 1.099 2.707 1.763 4.282 1.904a8.15 8.15 0 0 0 3.286-.403c.153-.053 1.181-.534 1.261-.627l.025.003c.14.018.298-.15.414-.222.114-.071.234-.14.345-.214.095-.064.184-.181.277-.253.605-.483 1.106-1.102 1.512-1.758.057-.09.196-.256.239-.35.102-.226.223-.433.321-.662.105-.243.195-.546.305-.787z"/><path fill="#8e8e8e" fill-opacity=".404" d="M23.315 8.053c.098-.092.337-.057.465-.053 1 .034 1.998.318 2.896.756.095.046.31.127.379.194.022.023.032.052.057.073.111.091.3.145.426.232.244.17.467.36.695.55.109.09.228.172.33.268.25.234.458.505.67.77.097.122.21.234.3.36.301.424.551.91.755 1.388.108.251.227.513.312.772.314.955.413 2.097.334 3.097-.021.274-.286 1.768-.425 1.882l-.032.022c-.036.21-.26.687-.363.887-.153.294-.304.599-.487.874-.096.144-.216.272-.323.408-.215.272-.43.553-.68.794-.118.114-.254.213-.379.32-.179.154-.35.301-.543.438-.897.632-1.904 1.09-2.99 1.273-.085.014-.17.011-.254.022-.076.01-.15.034-.226.045-.21.029-.598.048-.804.016a.3.3 0 0 1-.077-.024c-.078-.139-.003-1.599-.029-1.822-.046-.396.067-4.17-.04-4.347l-.023-.004c-.031.05-.013.14-.03.198a11 11 0 0 1-.499 1.475 7.62 7.62 0 0 1-5.412 4.412c-.186.04-.459.045-.651.096-.116.03-.787.034-.866.002l.008-.018c.199.055 1.03-.044 1.252-.082a7.4 7.4 0 0 0 3.178-1.353c.218-.158.36-.303.558-.475 1.363-1.187 2.206-2.881 2.49-4.655.014-.091.023-.186.038-.28.055.362.02 1.21.029 1.464.017.478-.032 5.254.024 5.37.147.057.73 0 .898-.044.05-.014.233-.006.311-.02q.617-.117 1.216-.306.142-.045.28-.105c.022-.01.177-.098.174-.097.13-.015.18-.061.292-.114a7.7 7.7 0 0 0 2.574-2.014c.07-.085.122-.174.184-.264.108-.12.213-.237.303-.372 2.012-3.053 1.655-7.15-.905-9.77-.06-.06-.14-.137-.196-.198-.068-.074-.255-.182-.292-.253-.32-.276-.613-.53-.99-.727-.152-.08-.292-.196-.451-.27-.425-.198-.94-.424-1.388-.551a7.1 7.1 0 0 0-2.033-.268c-.015.198-.008.448-.008.65v5.401c-.001.146.005.44-.014.576l-.017.006.007.026.005-.021-.018-.016c-.013-.104-.079-.355-.08-.395.05.015.029.019.069.003.045-.082.022-.397.023-.508.005-1.263.002-2.526.002-3.79l.002-1.23c0-.159.01-.535-.01-.674"/><path fill="#8e8e8e" fill-opacity=".427" d="M1.23 12.912v-.04c0-.105.102-.303.148-.409.375-.871.972-1.655 1.627-2.336.087-.091.285-.241.393-.334.164-.118.348-.325.519-.423.261-.15.57-.382.83-.515a7.8 7.8 0 0 1 2.756-.835c.33-.034.697-.008 1.029-.017a6.9 6.9 0 0 1 2.062.352c.403.136.828.335 1.214.516.131.061.28.185.41.261.626.366 1.16.858 1.66 1.379.193.232.378.475.555.72.099.135.203.357.318.466.048.107.11.21.164.314.369.696.623 1.458.774 2.23.036.184.047.374.072.56.033-.192.022-.673.022-.887V9.505c0-.437.019-1.025-.005-1.448.125-.136.96-.009 1.156.016.917.115 1.781.467 2.598.887l.032.06c.176.093.345.198.515.302.042.026.073.055.114.08l.027.005c.264.261.584.469.835.724.646.654 1.245 1.457 1.61 2.302.067.153.176.317.16.474l-.005-.003c-.017-.204-.415-.887-.513-1.104-.079-.173-.254-.341-.337-.503-.062-.122-.14-.202-.222-.31-.436-.61-1.001-1.094-1.583-1.56-.14-.11-.354-.212-.506-.313-.101-.067-.145-.034-.21-.15a7.64 7.64 0 0 0-3.64-.934v5.864c0 .313.024.81-.055 1.094-.04-.194-.027-.37-.063-.568-.168-.946-.481-1.875-.979-2.7-.1-.145-.2-.271-.292-.423-.45-.738-1.12-1.307-1.772-1.862-.028-.024-.076-.01-.11-.036-.246-.19-.521-.348-.785-.512-.477-.234-1.236-.543-1.755-.664a7.6 7.6 0 0 0-5.034.567c-.31.15-.63.373-.934.546-.196.122-.376.3-.554.442-.88.708-1.612 1.69-2.071 2.72-.044.098-.153.318-.175.414"/><path fill="#353535" fill-opacity=".267" d="m12.121 22.383.026-.017c.036-.024.028-.027.054-.047.113-.086.264-.204.377-.278a.3.3 0 0 0 .085-.024c.34-.26.707-.6 1.01-.9.213-.209.382-.436.563-.669a7.4 7.4 0 0 0 1.367-2.924c.032-.139.137-.834.159-.876l.017.005c.029.15.02.467.02.635l.001 1.029v3.793l-.001.863c0 .089-.004.36.01.436l-.008.018c-.046-.047-.035-.2-.035-.269-.006-1.444.005-2.888-.007-4.331-.003-.412-.063-.822-.038-1.236.008-.119-.007-.239.023-.355l-.013-.008c.007.124-.12.813-.19.898l-.007.011c-.11.24-.2.544-.305.787-.098.23-.219.436-.321.662-.043.094-.182.26-.239.35-.406.656-.907 1.275-1.512 1.758-.093.072-.182.189-.277.253-.11.074-.231.143-.345.214-.116.073-.274.24-.414.221"/><path fill="#0c0c0c" fill-opacity=".188" d="M20.22 9.407c.11-.017.292.191.383.263.467.368.884.791 1.254 1.256.056.071.115.194.172.255.156.169.269.353.39.549.068.137.044.175.145.306.205.267.257.689.448.974.002.002.003.188.018.238.098.066.067.095.067.213.177.092.006.232.128.281.05-.064.004-.504.014-.63.085-1.014.054-2.037.053-3.056V8.78c.002-.212-.008-.52.023-.727.021.139.012.515.011.674l-.002 1.23c0 1.264.003 2.527-.002 3.79 0 .111.022.426-.023.508-.04.016-.019.012-.068-.003v-.062c0-.205-.278-.95-.348-1.207-.011-.042-.027-.048-.058-.076.016-.157-.093-.321-.16-.474-.365-.845-.964-1.648-1.61-2.302-.25-.255-.571-.463-.835-.724"/><path fill="#c2c2c2" fill-opacity=".588" d="M23.355 8.025c.66-.016 1.399.087 2.033.268.448.127.963.353 1.388.55.16.075.299.192.45.27.378.197.67.452.991.728-.09-.03-.201-.152-.33-.225-.045-.015-.025.001-.053-.035-.14-.179-.399-.287-.584-.405A7.2 7.2 0 0 0 24.35 8.13a10 10 0 0 0-.97-.076l.002 4.62v1.3c0 .421.013.788-.057 1.207-.063-.272-.05-.564-.11-.821-.109-.451-.242-.978-.409-1.41l.013-.045.005.003c.031.028.047.034.058.076.07.257.349 1.002.348 1.207v.062c0 .04.066.291.08.395l.017.016-.005.02-.007-.025.017-.006c.02-.136.013-.43.013-.576l.001-1.045V8.674c0-.2-.007-.45.008-.649"/><path fill="#353535" fill-opacity=".263" d="M15.653 13.748c.068.1.055.26.054.377l.015.003c.016-.075-.01-.5.001-.633.058-.608.04-1.254.041-1.868V9.545c0-.38-.02-1.131.014-1.488.024.423.005 1.01.005 1.448v4.409c0 .214.01.695-.022.888-.025-.187-.036-.377-.072-.562a8.1 8.1 0 0 0-.774-2.229c-.055-.104-.116-.207-.164-.314.136.036.576 1.13.642 1.307.04.113.22.702.26.744"/></svg>